<svg data-v-0dd9719b="" version="1.0" xmlns="http://www.w3.org/2000/svg" xmlns:xlink="http://www.w3.org/1999/xlink" width="200px" height="70px" viewBox="0 0 640.000000 200.000000" preserveAspectRatio="xMidYMid meet" color-interpolation-filters="sRGB" style="margin: auto;"> <rect data-v-0dd9719b="" x="0" y="0" width="100%" height="100%" fill="#feffff" fill-opacity="1" class="background"></rect> <rect data-v-0dd9719b="" x="0" y="0" width="100%" height="100%" fill="url(#watermark)" fill-opacity="1" class="watermarklayer"></rect> <g data-v-0dd9719b="" fill="#0a0619" class="icon-text-wrapper icon-svg-group iconsvg" transform="translate(92.19999694824219,61.31593322753906)"><g fill="#0a0619" class="iconsvg-imagesvg icon_container" transform="translate(49.988943099975586,0)"><rect fill="#0a0619" fill-opacity="0" stroke-width="2" x="0" y="0" width="55.6221198156682" height="55.6221198156682" class="image-rect"></rect> <svg viewBox="0 0 60 60" x="0" y="0" width="55.6221198156682" height="55.6221198156682" class="image-svg-svg bn" style="overflow: visible;"><g hollow-target="iconBnFill" mask="url(#8c91e031-c5f9-40b0-ae15-020e99eb53e7)"><g><svg fill="#000000" xmlns="http://www.w3.org/2000/svg" xmlns:xlink="http://www.w3.org/1999/xlink" xmlns:sketch="http://www.bohemiancoding.com/sketch/ns" viewBox="0 0 60 60" version="1.1" x="0" y="0" style="overflow: visible;" width="60" height="60" filtersec="colorsf4995067264" filter="url(#ZOLuTmk24tIyjPYeS7CVw)"><g transform="scale(1, 1) skewX(0)"><title>96 - Rounded (Solid)</title><desc>Created with Sketch.</desc><g stroke="none" stroke-width="1" fill="none" fill-rule="evenodd" sketch:type="MSPage"><g sketch:type="MSLayerGroup" fill="#000000"><path d="M49.001,0 L10.999,0 C4.934,0 0,4.934 0,10.999 L0,49.001 C0,55.066 4.934,60 10.999,60 L49.001,60 C55.065,60 60,55.066 60,49.001 L60,10.999 C60,4.934 55.065,0 49.001,0" sketch:type="MSShapeGroup"></path></g></g></g><defs><filter id="ZOLuTmk24tIyjPYeS7CVw"><feColorMatrix type="matrix" values="0 0 0 0 0.0390625  0 0 0 0 0.0234375  0 0 0 0 0.09765625  0 0 0 1 0"></feColorMatrix></filter></defs></svg></g> <g filter="url(#colors5857152036)"><svg xmlns="http://www.w3.org/2000/svg" xmlns:xlink="http://www.w3.org/1999/xlink" viewBox="0 0 40.32000000000001 51.120000000000005" width="39" height="39" x="10.5" y="10.5" class="image-svg-letter"><path transform="translate(-6.408 51.120000000000005)" d="M41.76-51.12L46.73-51.12L46.73 0L41.76 0L41.76-23.90L11.45-23.90L11.45 0L6.41 0L6.41-51.12L11.45-51.12L11.45-28.37L41.76-28.37L41.76-51.12Z"></path></svg></g></g><mask id="8c91e031-c5f9-40b0-ae15-020e99eb53e7"><g fill="white"><svg xmlns="http://www.w3.org/2000/svg" xmlns:xlink="http://www.w3.org/1999/xlink" xmlns:sketch="http://www.bohemiancoding.com/sketch/ns" viewBox="0 0 60 60" version="1.1" x="0" y="0" style="overflow: visible;" width="60" height="60" filtersec="colorsf4995067264"><g transform="scale(1, 1) skewX(0)"><title>96 - Rounded (Solid)</title><desc>Created with Sketch.</desc><g stroke-width="1" fill-rule="evenodd" sketch:type="MSPage"><g sketch:type="MSLayerGroup"><path d="M49.001,0 L10.999,0 C4.934,0 0,4.934 0,10.999 L0,49.001 C0,55.066 4.934,60 10.999,60 L49.001,60 C55.065,60 60,55.066 60,49.001 L60,10.999 C60,4.934 55.065,0 49.001,0" sketch:type="MSShapeGroup"></path></g></g></g><defs></defs></svg></g> <g fill="black"><svg xmlns="http://www.w3.org/2000/svg" xmlns:xlink="http://www.w3.org/1999/xlink" viewBox="0 0 40.32000000000001 51.120000000000005" width="39" height="39" x="10.5" y="10.5" class="image-svg-letter"><path transform="translate(-6.408 51.120000000000005)" d="M41.76-51.12L46.73-51.12L46.73 0L41.76 0L41.76-23.90L11.45-23.90L11.45 0L6.41 0L6.41-51.12L11.45-51.12L11.45-28.37L41.76-28.37L41.76-51.12Z"></path></svg></g></mask></svg> <defs><filter id="colors5857152036"><feColorMatrix type="matrix" values="0 0 0 0 0.0390625  0 0 0 0 0.0234375  0 0 0 0 0.09765625  0 0 0 1 0" class="icon-fecolormatrix"></feColorMatrix></filter> <filter id="colorsf4995067264"><feColorMatrix type="matrix" values="0 0 0 0 0.99609375  0 0 0 0 0.99609375  0 0 0 0 0.99609375  0 0 0 1 0" class="icon-fecolormatrix"></feColorMatrix></filter> <filter id="colorsb7158077196"><feColorMatrix type="matrix" values="0 0 0 0 0  0 0 0 0 0  0 0 0 0 0  0 0 0 1 0" class="icon-fecolormatrix"></feColorMatrix></filter></defs></g> <g transform="translate(0,62.62211990356445)"><g data-gra="path-name" fill-rule="" class="tp-name iconsvg-namesvg" transform="translate(0,0)"><g transform="scale(1)"><g><path d="M30.83-37.74L34.5-37.74 34.5 0 30.83 0 30.83-17.65 8.45-17.65 8.45 0 4.73 0 4.73-37.74 8.45-37.74 8.45-20.94 30.83-20.94 30.83-37.74ZM49.92 0.53L49.92 0.53Q47.95 0.53 46.27-0.13 44.6-0.8 43.35-1.97 42.1-3.14 41.41-4.7 40.72-6.27 40.72-8.08L40.72-8.08Q40.72-9.89 41.57-11.43 42.42-12.97 43.96-14.09 45.5-15.2 47.63-15.81 49.76-16.43 52.31-16.43L52.31-16.43Q54.43-16.43 56.61-16.05 58.79-15.68 60.49-14.99L60.49-14.99 60.49-17.49Q60.49-21.16 58.42-23.31 56.35-25.46 52.68-25.46L52.68-25.46Q50.55-25.46 48.32-24.61 46.09-23.76 43.8-22.17L43.8-22.17 42.53-24.56Q47.9-28.17 52.95-28.17L52.95-28.17Q58.16-28.17 61.13-25.25 64.11-22.33 64.11-17.17L64.11-17.17 64.11-4.68Q64.11-3.19 65.44-3.19L65.44-3.19 65.44 0Q64.53 0.16 64.06 0.16L64.06 0.16Q62.67 0.16 61.9-0.53 61.13-1.22 61.08-2.45L61.08-2.45 60.97-4.62Q59.06-2.13 56.16-0.8 53.26 0.53 49.92 0.53ZM50.77-2.23L50.77-2.23Q53.58-2.23 55.95-3.3 58.31-4.36 59.54-6.11L59.54-6.11Q60.02-6.59 60.25-7.15 60.49-7.71 60.49-8.19L60.49-8.19 60.49-12.7Q58.69-13.4 56.75-13.77 54.81-14.14 52.79-14.14L52.79-14.14Q48.96-14.14 46.57-12.55 44.17-10.95 44.17-8.35L44.17-8.35Q44.17-7.07 44.68-5.95 45.18-4.84 46.06-4.01 46.94-3.19 48.16-2.71 49.38-2.23 50.77-2.23ZM86.06 0.53L86.06 0.53Q82.55 0.53 79.87-1.25 77.19-3.03 75.54-5.74L75.54-5.74 75.54 11.32 71.92 11.32 71.92-27.7 75.17-27.7 75.17-22.33Q76.87-24.93 79.58-26.55 82.29-28.17 85.48-28.17L85.48-28.17Q88.35-28.17 90.74-26.98 93.13-25.78 94.89-23.79 96.64-21.79 97.63-19.19 98.61-16.59 98.61-13.82L98.61-13.82Q98.61-10.9 97.7-8.29 96.8-5.69 95.13-3.72 93.45-1.75 91.14-0.61 88.83 0.53 86.06 0.53ZM85.05-2.66L85.05-2.66Q87.29-2.66 89.12-3.61 90.95-4.57 92.26-6.14 93.56-7.71 94.25-9.7 94.94-11.69 94.94-13.82L94.94-13.82Q94.94-16.05 94.14-18.07 93.35-20.09 91.96-21.64 90.58-23.18 88.69-24.08 86.81-24.98 84.63-24.98L84.63-24.98Q83.25-24.98 81.73-24.43 80.22-23.87 78.91-22.94 77.61-22.01 76.68-20.76 75.75-19.51 75.54-18.13L75.54-18.13 75.54-9.62Q76.18-8.13 77.16-6.86 78.14-5.58 79.39-4.65 80.64-3.72 82.08-3.19 83.51-2.66 85.05-2.66ZM118.86 0.53L118.86 0.53Q115.35 0.53 112.67-1.25 109.98-3.03 108.34-5.74L108.34-5.74 108.34 11.32 104.72 11.32 104.72-27.7 107.96-27.7 107.96-22.33Q109.67-24.93 112.38-26.55 115.09-28.17 118.28-28.17L118.28-28.17Q121.15-28.17 123.54-26.98 125.93-25.78 127.69-23.79 129.44-21.79 130.42-19.19 131.41-16.59 131.41-13.82L131.41-13.82Q131.41-10.9 130.5-8.29 129.6-5.69 127.93-3.72 126.25-1.75 123.94-0.61 121.63 0.53 118.86 0.53ZM117.85-2.66L117.85-2.66Q120.08-2.66 121.92-3.61 123.75-4.57 125.05-6.14 126.36-7.71 127.05-9.7 127.74-11.69 127.74-13.82L127.74-13.82Q127.74-16.05 126.94-18.07 126.14-20.09 124.76-21.64 123.38-23.18 121.49-24.08 119.61-24.98 117.43-24.98L117.43-24.98Q116.04-24.98 114.53-24.43 113.01-23.87 111.71-22.94 110.41-22.01 109.48-20.76 108.55-19.51 108.34-18.13L108.34-18.13 108.34-9.62Q108.97-8.13 109.96-6.86 110.94-5.58 112.19-4.65 113.44-3.72 114.87-3.19 116.31-2.66 117.85-2.66ZM138.16 11.69L138.16 8.51Q138.58 8.56 138.98 8.59 139.38 8.61 139.75 8.61L139.75 8.61Q140.71 8.61 141.27 8.35 141.83 8.08 142.36 7.18 142.89 6.27 143.55 4.57 144.22 2.87 145.44 0L145.44 0 133.37-27.7 137.1-27.7 147.35-3.35 156.87-27.7 160.33-27.7 145.97 8.03Q145.39 9.57 144.03 10.71 142.68 11.85 140.34 11.85L140.34 11.85Q139.81 11.85 139.33 11.83 138.85 11.8 138.16 11.69L138.16 11.69Z" transform="translate(-4.730000019073486, 37.7400016784668)"></path></g> <!----> <!----> <!----> <!----> <!----> <!----> <!----></g></g> <g data-gra="path-slogan" fill-rule="" class="tp-slogan iconsvg-slogansvg" fill="#0a0619" transform="translate(8.535003662109375,56.59000778198242)"><!----> <!----> <g transform="scale(1, 1)"><g transform="scale(1)"><path d="M1.08 0L1.08-7.87L2.08-7.87L2.08-0.85L5.52-0.85L5.52 0L1.08 0ZM6.91 0L6.91-7.87L11.45-7.87L11.45-7.03L7.91-7.03L7.91-4.56L10.90-4.56L10.90-3.71L7.91-3.71L7.91-0.85L11.57-0.85L11.57 0L6.91 0ZM14.22-3.20L16.58-3.20L16.21-4.40Q16.00-5.06 15.80-5.72Q15.61-6.37 15.42-7.06L15.42-7.06L15.37-7.06Q15.19-6.37 15.00-5.72Q14.81-5.06 14.59-4.40L14.59-4.40L14.22-3.20ZM17.58 0L16.84-2.40L13.97-2.40L13.21 0L12.19 0L14.86-7.87L15.98-7.87L18.65 0L17.58 0ZM20.76-7.07L20.76-4.14L22.08-4.14Q23.00-4.14 23.50-4.52Q23.99-4.90 23.99-5.66L23.99-5.66Q23.99-6.44 23.50-6.76Q23.00-7.07 22.08-7.07L22.08-7.07L20.76-7.07ZM25.21 0L24.08 0L22.19-3.32L20.76-3.32L20.76 0L19.76 0L19.76-7.87L22.22-7.87Q22.82-7.87 23.33-7.76Q23.84-7.64 24.21-7.38Q24.58-7.12 24.78-6.70Q24.98-6.28 24.98-5.66L24.98-5.66Q24.98-4.74 24.50-4.19Q24.02-3.64 23.22-3.43L23.22-3.43L25.21 0ZM26.74 0L26.74-7.87L27.77-7.87L30.61-2.93L31.46-1.30L31.51-1.30Q31.48-1.90 31.43-2.54Q31.39-3.18 31.39-3.80L31.39-3.80L31.39-7.87L32.34-7.87L32.34 0L31.31 0L28.45-4.96L27.60-6.58L27.55-6.58Q27.60-5.98 27.64-5.36Q27.68-4.74 27.68-4.12L27.68-4.12L27.68 0L26.74 0ZM34.50 0L34.50-7.87L35.50-7.87L35.50 0L34.50 0ZM37.66 0L37.66-7.87L38.69-7.87L41.53-2.93L42.38-1.30L42.43-1.30Q42.40-1.90 42.35-2.54Q42.31-3.18 42.31-3.80L42.31-3.80L42.31-7.87L43.26-7.87L43.26 0L42.23 0L39.37-4.96L38.52-6.58L38.47-6.58Q38.52-5.98 38.56-5.36Q38.60-4.74 38.60-4.12L38.60-4.12L38.60 0L37.66 0ZM44.96-3.94L44.96-3.94Q44.96-4.88 45.23-5.64Q45.50-6.40 45.99-6.92Q46.48-7.45 47.14-7.73Q47.80-8.02 48.59-8.02L48.59-8.02Q49.40-8.02 49.95-7.71Q50.50-7.40 50.84-7.04L50.84-7.04L50.28-6.41Q49.98-6.72 49.59-6.93Q49.20-7.14 48.60-7.14L48.60-7.14Q48-7.14 47.52-6.92Q47.04-6.70 46.70-6.28Q46.37-5.87 46.18-5.28Q46.00-4.69 46.00-3.96L46.00-3.96Q46.00-3.22 46.17-2.62Q46.34-2.03 46.67-1.61Q47.00-1.19 47.49-0.96Q47.98-0.73 48.61-0.73L48.61-0.73Q49.03-0.73 49.41-0.86Q49.79-0.98 50.03-1.20L50.03-1.20L50.03-3.25L48.36-3.25L48.36-4.08L50.94-4.08L50.94-0.77Q50.56-0.37 49.93-0.11Q49.30 0.14 48.50 0.14L48.50 0.14Q47.72 0.14 47.08-0.13Q46.43-0.41 45.96-0.93Q45.49-1.45 45.23-2.21Q44.96-2.98 44.96-3.94ZM55.25 0L55.25-7.87L59.78-7.87L59.78-7.03L56.24-7.03L56.24-4.37L59.24-4.37L59.24-3.53L56.24-3.53L56.24 0L55.25 0ZM63.96 0.14L63.96 0.14Q63.22 0.14 62.60-0.14Q61.98-0.43 61.54-0.97Q61.09-1.50 60.85-2.26Q60.60-3.02 60.60-3.97L60.60-3.97Q60.60-4.92 60.85-5.67Q61.09-6.42 61.54-6.94Q61.98-7.46 62.60-7.74Q63.22-8.02 63.96-8.02L63.96-8.02Q64.70-8.02 65.32-7.73Q65.94-7.45 66.39-6.93Q66.84-6.41 67.09-5.66Q67.33-4.91 67.33-3.97L67.33-3.97Q67.33-3.02 67.09-2.26Q66.84-1.50 66.39-0.97Q65.94-0.43 65.32-0.14Q64.70 0.14 63.96 0.14ZM63.96-0.73L63.96-0.73Q64.49-0.73 64.91-0.96Q65.34-1.19 65.65-1.61Q65.95-2.04 66.12-2.63Q66.29-3.23 66.29-3.97L66.29-3.97Q66.29-4.70 66.12-5.29Q65.95-5.88 65.65-6.29Q65.34-6.70 64.91-6.92Q64.49-7.14 63.96-7.14L63.96-7.14Q63.43-7.14 63.01-6.92Q62.58-6.70 62.27-6.29Q61.97-5.88 61.80-5.29Q61.63-4.70 61.63-3.97L61.63-3.97Q61.63-3.23 61.80-2.63Q61.97-2.04 62.27-1.61Q62.58-1.19 63.01-0.96Q63.43-0.73 63.96-0.73ZM70.02-7.07L70.02-4.14L71.34-4.14Q72.26-4.14 72.76-4.52Q73.25-4.90 73.25-5.66L73.25-5.66Q73.25-6.44 72.76-6.76Q72.26-7.07 71.34-7.07L71.34-7.07L70.02-7.07ZM74.47 0L73.34 0L71.45-3.32L70.02-3.32L70.02 0L69.02 0L69.02-7.87L71.48-7.87Q72.08-7.87 72.59-7.76Q73.10-7.64 73.47-7.38Q73.84-7.12 74.04-6.70Q74.24-6.28 74.24-5.66L74.24-5.66Q74.24-4.74 73.76-4.19Q73.28-3.64 72.48-3.43L72.48-3.43L74.47 0ZM76.00 0L76.00-7.87L80.53-7.87L80.53-7.03L76.99-7.03L76.99-4.56L79.98-4.56L79.98-3.71L76.99-3.71L76.99-0.85L80.65-0.85L80.65 0L76.00 0ZM82.32 0L82.32-7.87L83.32-7.87L83.32 0L82.32 0ZM85.02-3.94L85.02-3.94Q85.02-4.88 85.29-5.64Q85.56-6.40 86.05-6.92Q86.53-7.45 87.19-7.73Q87.85-8.02 88.64-8.02L88.64-8.02Q89.46-8.02 90.01-7.71Q90.55-7.40 90.90-7.04L90.90-7.04L90.34-6.41Q90.04-6.72 89.65-6.93Q89.26-7.14 88.66-7.14L88.66-7.14Q88.06-7.14 87.58-6.92Q87.10-6.70 86.76-6.28Q86.42-5.87 86.24-5.28Q86.05-4.69 86.05-3.96L86.05-3.96Q86.05-3.22 86.23-2.62Q86.40-2.03 86.73-1.61Q87.06-1.19 87.55-0.96Q88.03-0.73 88.67-0.73L88.67-0.73Q89.09-0.73 89.47-0.86Q89.84-0.98 90.08-1.20L90.08-1.20L90.08-3.25L88.42-3.25L88.42-4.08L91.00-4.08L91.00-0.77Q90.61-0.37 89.98-0.11Q89.35 0.14 88.56 0.14L88.56 0.14Q87.78 0.14 87.13-0.13Q86.48-0.41 86.02-0.93Q85.55-1.45 85.28-2.21Q85.02-2.98 85.02-3.94ZM92.88 0L92.88-7.87L93.91-7.87L96.76-2.93L97.61-1.30L97.66-1.30Q97.62-1.90 97.58-2.54Q97.54-3.18 97.54-3.80L97.54-3.80L97.54-7.87L98.48-7.87L98.48 0L97.45 0L94.60-4.96L93.74-6.58L93.70-6.58Q93.74-5.98 93.79-5.36Q93.83-4.74 93.83-4.12L93.83-4.12L93.83 0L92.88 0ZM103.93 0L102.26-7.87L103.30-7.87L104.12-3.59Q104.23-2.94 104.35-2.32Q104.47-1.69 104.58-1.04L104.58-1.04L104.63-1.04Q104.76-1.69 104.90-2.32Q105.05-2.95 105.18-3.59L105.18-3.59L106.27-7.87L107.18-7.87L108.28-3.59Q108.42-2.96 108.56-2.33Q108.71-1.69 108.85-1.04L108.85-1.04L108.90-1.04Q109.01-1.69 109.12-2.32Q109.22-2.95 109.34-3.59L109.34-3.59L110.17-7.87L111.13-7.87L109.50 0L108.30 0L107.11-4.74Q107.00-5.20 106.91-5.63Q106.82-6.07 106.73-6.53L106.73-6.53L106.68-6.53Q106.58-6.07 106.48-5.63Q106.38-5.20 106.28-4.74L106.28-4.74L105.12 0L103.93 0ZM115.33 0.14L115.33 0.14Q114.59 0.14 113.97-0.14Q113.35-0.43 112.91-0.97Q112.46-1.50 112.22-2.26Q111.97-3.02 111.97-3.97L111.97-3.97Q111.97-4.92 112.22-5.67Q112.46-6.42 112.91-6.94Q113.35-7.46 113.97-7.74Q114.59-8.02 115.33-8.02L115.33-8.02Q116.08-8.02 116.69-7.73Q117.31-7.45 117.76-6.93Q118.21-6.41 118.46-5.66Q118.70-4.91 118.70-3.97L118.70-3.97Q118.70-3.02 118.46-2.26Q118.21-1.50 117.76-0.97Q117.31-0.43 116.69-0.14Q116.08 0.14 115.33 0.14ZM115.33-0.73L115.33-0.73Q115.86-0.73 116.29-0.96Q116.71-1.19 117.02-1.61Q117.32-2.04 117.49-2.63Q117.66-3.23 117.66-3.97L117.66-3.97Q117.66-4.70 117.49-5.29Q117.32-5.88 117.02-6.29Q116.71-6.70 116.29-6.92Q115.86-7.14 115.33-7.14L115.33-7.14Q114.80-7.14 114.38-6.92Q113.95-6.70 113.65-6.29Q113.34-5.88 113.17-5.29Q113.00-4.70 113.00-3.97L113.00-3.97Q113.00-3.23 113.17-2.63Q113.34-2.04 113.65-1.61Q113.95-1.19 114.38-0.96Q114.80-0.73 115.33-0.73ZM121.39-7.07L121.39-4.14L122.71-4.14Q123.64-4.14 124.13-4.52Q124.62-4.90 124.62-5.66L124.62-5.66Q124.62-6.44 124.13-6.76Q123.64-7.07 122.71-7.07L122.71-7.07L121.39-7.07ZM125.84 0L124.72 0L122.82-3.32L121.39-3.32L121.39 0L120.40 0L120.40-7.87L122.86-7.87Q123.46-7.87 123.97-7.76Q124.48-7.64 124.84-7.38Q125.21-7.12 125.41-6.70Q125.62-6.28 125.62-5.66L125.62-5.66Q125.62-4.74 125.14-4.19Q124.66-3.64 123.85-3.43L123.85-3.43L125.84 0ZM127.37 0L127.37-7.87L129.34-7.87Q131.16-7.87 132.11-6.86Q133.06-5.86 133.06-3.97L133.06-3.97Q133.06-3.04 132.82-2.30Q132.58-1.56 132.11-1.05Q131.64-0.54 130.96-0.27Q130.27 0 129.38 0L129.38 0L127.37 0ZM128.36-0.82L129.26-0.82Q130.64-0.82 131.33-1.64Q132.02-2.47 132.02-3.97L132.02-3.97Q132.02-5.47 131.33-6.26Q130.64-7.06 129.26-7.06L129.26-7.06L128.36-7.06L128.36-0.82ZM134.17-1.02L134.77-1.72Q135.19-1.27 135.76-1.00Q136.33-0.73 136.94-0.73L136.94-0.73Q137.72-0.73 138.16-1.09Q138.59-1.44 138.59-2.02L138.59-2.02Q138.59-2.32 138.49-2.53Q138.38-2.74 138.21-2.89Q138.04-3.04 137.80-3.16Q137.56-3.28 137.28-3.41L137.28-3.41L136.15-3.90Q135.88-4.02 135.59-4.19Q135.30-4.36 135.07-4.60Q134.84-4.84 134.70-5.17Q134.56-5.50 134.56-5.93L134.56-5.93Q134.56-6.37 134.74-6.76Q134.93-7.14 135.26-7.42Q135.59-7.70 136.04-7.86Q136.49-8.02 137.03-8.02L137.03-8.02Q137.74-8.02 138.34-7.75Q138.94-7.48 139.36-7.04L139.36-7.04L138.82-6.40Q138.46-6.74 138.02-6.94Q137.58-7.14 137.03-7.14L137.03-7.14Q136.37-7.14 135.97-6.83Q135.56-6.53 135.56-5.99L135.56-5.99Q135.56-5.70 135.68-5.50Q135.79-5.30 135.98-5.15Q136.18-5.00 136.40-4.89Q136.63-4.78 136.87-4.68L136.87-4.68L137.99-4.20Q138.32-4.06 138.62-3.87Q138.92-3.68 139.14-3.44Q139.36-3.19 139.48-2.86Q139.61-2.53 139.61-2.10L139.61-2.10Q139.61-1.63 139.42-1.22Q139.24-0.82 138.89-0.51Q138.54-0.20 138.05-0.03Q137.56 0.14 136.93 0.14L136.93 0.14Q136.10 0.14 135.40-0.17Q134.69-0.48 134.17-1.02L134.17-1.02Z" transform="translate(-1.08, 8.016)"></path></g></g></g></g></g><defs v-gra="od"></defs></svg>